<?xml version="1.0" encoding="UTF-8" standalone="no"?>
<!DOCTYPE svg PUBLIC "-//W3C//DTD SVG 1.1//EN"
 "http://www.w3.org/Graphics/SVG/1.1/DTD/svg11.dtd">
<!-- Generated by graphviz version 2.44.0 (0)
 -->
<!-- Title: inheritance5de412ef89 Pages: 1 -->
<svg width="419pt" height="230pt"
 viewBox="0.00 0.00 419.00 230.00" xmlns="http://www.w3.org/2000/svg" xmlns:xlink="http://www.w3.org/1999/xlink">
<g id="graph0" class="graph" transform="scale(1 1) rotate(0) translate(4 226)">
<title>inheritance5de412ef89</title>
<!-- AlignmentData -->
<g id="node1" class="node">
<title>AlignmentData</title>
<g id="a_node1"><a xlink:href="../api/DLNIRSP_Pipeline.Data.AlignmentData.html#DLNIRSP_Pipeline.Data.AlignmentData" xlink:title="AlignmentData is an extension of `FitData` designed to only hold data associated with Alignment. It inherits all of the" target="_top">
<polygon fill="white" stroke="black" stroke-width="0.5" points="406.5,-204 316.5,-204 316.5,-185 406.5,-185 406.5,-204"/>
<text text-anchor="middle" x="361.5" y="-192" font-family="Vera Sans, DejaVu Sans, Liberation Sans, Arial, Helvetica, sans" font-size="10.00">AlignmentData</text>
</a>
</g>
</g>
<!-- _TaskData -->
<g id="node2" class="node">
<title>_TaskData</title>
<g id="a_node2"><a xlink:title="_TaskData is a class template that is used to define specific *Data classes that are designed to only hold data">
<polygon fill="white" stroke="black" stroke-width="0.5" points="252,-130 185,-130 185,-111 252,-111 252,-130"/>
<text text-anchor="middle" x="218.5" y="-118" font-family="Vera Sans, DejaVu Sans, Liberation Sans, Arial, Helvetica, sans" font-size="10.00">_TaskData</text>
</a>
</g>
</g>
<!-- _TaskData&#45;&gt;AlignmentData -->
<g id="edge1" class="edge">
<title>_TaskData&#45;&gt;AlignmentData</title>
<path fill="none" stroke="black" stroke-width="0.5" d="M233.45,-130.1C251.16,-142.01 282.92,-162.46 312,-176.5 316.83,-178.83 322.05,-181.06 327.2,-183.09"/>
<polygon fill="black" stroke="black" stroke-width="0.5" points="326.62,-184.74 331.91,-184.91 327.88,-181.48 326.62,-184.74"/>
</g>
<!-- DarkData -->
<g id="node6" class="node">
<title>DarkData</title>
<g id="a_node6"><a xlink:href="../api/DLNIRSP_Pipeline.Data.DarkData.html#DLNIRSP_Pipeline.Data.DarkData" xlink:title="DarkData is an extension of `FitData` designed to only hold data associated with Dark. It inherits all of the" target="_top">
<polygon fill="white" stroke="black" stroke-width="0.5" points="393,-167 330,-167 330,-148 393,-148 393,-167"/>
<text text-anchor="middle" x="361.5" y="-155" font-family="Vera Sans, DejaVu Sans, Liberation Sans, Arial, Helvetica, sans" font-size="10.00">DarkData</text>
</a>
</g>
</g>
<!-- _TaskData&#45;&gt;DarkData -->
<g id="edge3" class="edge">
<title>_TaskData&#45;&gt;DarkData</title>
<path fill="none" stroke="black" stroke-width="0.5" d="M252.2,-129.08C273.98,-134.8 302.6,-142.31 324.95,-148.17"/>
<polygon fill="black" stroke="black" stroke-width="0.5" points="324.62,-149.9 329.91,-149.47 325.51,-146.51 324.62,-149.9"/>
</g>
<!-- LampGainData -->
<g id="node9" class="node">
<title>LampGainData</title>
<g id="a_node9"><a xlink:href="../api/DLNIRSP_Pipeline.Data.LampGainData.html#DLNIRSP_Pipeline.Data.LampGainData" xlink:title="LampGainData is an extension of `FitData` designed to only hold data associated with LampGain. It inherits all of the" target="_top">
<polygon fill="white" stroke="black" stroke-width="0.5" points="406,-130 317,-130 317,-111 406,-111 406,-130"/>
<text text-anchor="middle" x="361.5" y="-118" font-family="Vera Sans, DejaVu Sans, Liberation Sans, Arial, Helvetica, sans" font-size="10.00">LampGainData</text>
</a>
</g>
</g>
<!-- _TaskData&#45;&gt;LampGainData -->
<g id="edge5" class="edge">
<title>_TaskData&#45;&gt;LampGainData</title>
<path fill="none" stroke="black" stroke-width="0.5" d="M252.2,-120.5C269.83,-120.5 291.93,-120.5 311.56,-120.5"/>
<polygon fill="black" stroke="black" stroke-width="0.5" points="311.76,-122.25 316.76,-120.5 311.76,-118.75 311.76,-122.25"/>
</g>
<!-- ObservationData -->
<g id="node12" class="node">
<title>ObservationData</title>
<g id="a_node12"><a xlink:href="../api/DLNIRSP_Pipeline.Data.ObservationData.html#DLNIRSP_Pipeline.Data.ObservationData" xlink:title="ObservationData is an extension of `FitData` designed to only hold data associated with Observation. It inherits all of the" target="_top">
<polygon fill="white" stroke="black" stroke-width="0.5" points="411,-93 312,-93 312,-74 411,-74 411,-93"/>
<text text-anchor="middle" x="361.5" y="-81" font-family="Vera Sans, DejaVu Sans, Liberation Sans, Arial, Helvetica, sans" font-size="10.00">ObservationData</text>
</a>
</g>
</g>
<!-- _TaskData&#45;&gt;ObservationData -->
<g id="edge7" class="edge">
<title>_TaskData&#45;&gt;ObservationData</title>
<path fill="none" stroke="black" stroke-width="0.5" d="M252.2,-111.92C272.16,-106.68 297.86,-99.94 319.21,-94.33"/>
<polygon fill="black" stroke="black" stroke-width="0.5" points="319.87,-95.97 324.26,-93.01 318.98,-92.59 319.87,-95.97"/>
</g>
<!-- SolarGainData -->
<g id="node14" class="node">
<title>SolarGainData</title>
<g id="a_node14"><a xlink:href="../api/DLNIRSP_Pipeline.Data.SolarGainData.html#DLNIRSP_Pipeline.Data.SolarGainData" xlink:title="SolarGainData is an extension of `FitData` designed to only hold data associated with SolarGain. It inherits all of the" target="_top">
<polygon fill="white" stroke="black" stroke-width="0.5" points="405,-56 318,-56 318,-37 405,-37 405,-56"/>
<text text-anchor="middle" x="361.5" y="-44" font-family="Vera Sans, DejaVu Sans, Liberation Sans, Arial, Helvetica, sans" font-size="10.00">SolarGainData</text>
</a>
</g>
</g>
<!-- _TaskData&#45;&gt;SolarGainData -->
<g id="edge8" class="edge">
<title>_TaskData&#45;&gt;SolarGainData</title>
<path fill="none" stroke="black" stroke-width="0.5" d="M252.08,-113.11C260.24,-110.47 268.73,-106.99 276,-102.5 295.51,-90.43 292.89,-78.19 312,-65.5 316.18,-62.72 320.83,-60.26 325.54,-58.1"/>
<polygon fill="black" stroke="black" stroke-width="0.5" points="326.38,-59.64 330.27,-56.04 324.98,-56.43 326.38,-59.64"/>
</g>
<!-- CSStep -->
<g id="node3" class="node">
<title>CSStep</title>
<g id="a_node3"><a xlink:href="../api/DLNIRSP_Pipeline.Data.CSStep.html#DLNIRSP_Pipeline.Data.CSStep" xlink:title="This class allows for an easy way to quickly compare SPEC&#45;0122 style headers to determine if they come from the" target="_top">
<polygon fill="white" stroke="black" stroke-width="0.5" points="89.5,-111 35.5,-111 35.5,-92 89.5,-92 89.5,-111"/>
<text text-anchor="middle" x="62.5" y="-99" font-family="Vera Sans, DejaVu Sans, Liberation Sans, Arial, Helvetica, sans" font-size="10.00">CSStep</text>
</a>
</g>
</g>
<!-- CalibrationStepData -->
<g id="node4" class="node">
<title>CalibrationStepData</title>
<g id="a_node4"><a xlink:href="../api/DLNIRSP_Pipeline.Data.CalibrationStepData.html#DLNIRSP_Pipeline.Data.CalibrationStepData" xlink:title="CalibrationStepData is an extension of FitsData that loads a single Calibration Curve from a directory" target="_top">
<polygon fill="white" stroke="black" stroke-width="0.5" points="276,-93 161,-93 161,-74 276,-74 276,-93"/>
<text text-anchor="middle" x="218.5" y="-81" font-family="Vera Sans, DejaVu Sans, Liberation Sans, Arial, Helvetica, sans" font-size="10.00">CalibrationStepData</text>
</a>
</g>
</g>
<!-- FitsData -->
<g id="node5" class="node">
<title>FitsData</title>
<g id="a_node5"><a xlink:href="../api/DLNIRSP_Pipeline.Data.FitsData.html#DLNIRSP_Pipeline.Data.FitsData" xlink:title="FitsData is a basically a wrapper for astropy.io.fits, with some extra methods and properties to aid the" target="_top">
<polygon fill="white" stroke="black" stroke-width="0.5" points="91,-74 34,-74 34,-55 91,-55 91,-74"/>
<text text-anchor="middle" x="62.5" y="-62" font-family="Vera Sans, DejaVu Sans, Liberation Sans, Arial, Helvetica, sans" font-size="10.00">FitsData</text>
</a>
</g>
</g>
<!-- FitsData&#45;&gt;_TaskData -->
<g id="edge9" class="edge">
<title>FitsData&#45;&gt;_TaskData</title>
<path fill="none" stroke="black" stroke-width="0.5" d="M91.13,-71.85C101.87,-75.01 114.16,-79.01 125,-83.5 141.71,-90.42 144.32,-95.5 161,-102.5 167.05,-105.04 173.59,-107.43 180.01,-109.59"/>
<polygon fill="black" stroke="black" stroke-width="0.5" points="179.58,-111.29 184.87,-111.19 180.67,-107.96 179.58,-111.29"/>
</g>
<!-- FitsData&#45;&gt;CalibrationStepData -->
<g id="edge2" class="edge">
<title>FitsData&#45;&gt;CalibrationStepData</title>
<path fill="none" stroke="black" stroke-width="0.5" d="M91.03,-67.9C109.05,-70.12 133.33,-73.12 155.8,-75.89"/>
<polygon fill="black" stroke="black" stroke-width="0.5" points="155.69,-77.64 160.87,-76.51 156.12,-74.16 155.69,-77.64"/>
</g>
<!-- DemodulationData -->
<g id="node8" class="node">
<title>DemodulationData</title>
<g id="a_node8"><a xlink:href="../api/DLNIRSP_Pipeline.Data.DemodulationData.html#DLNIRSP_Pipeline.Data.DemodulationData" xlink:title="DemodulationData is a small modification of the `FitsData` class. It keeps track of demodulation matrices for each" target="_top">
<polygon fill="white" stroke="black" stroke-width="0.5" points="273,-56 164,-56 164,-37 273,-37 273,-56"/>
<text text-anchor="middle" x="218.5" y="-44" font-family="Vera Sans, DejaVu Sans, Liberation Sans, Arial, Helvetica, sans" font-size="10.00">DemodulationData</text>
</a>
</g>
</g>
<!-- FitsData&#45;&gt;DemodulationData -->
<g id="edge4" class="edge">
<title>FitsData&#45;&gt;DemodulationData</title>
<path fill="none" stroke="black" stroke-width="0.5" d="M91.03,-61.28C109.77,-59.09 135.29,-56.11 158.5,-53.4"/>
<polygon fill="black" stroke="black" stroke-width="0.5" points="158.96,-55.1 163.72,-52.79 158.56,-51.63 158.96,-55.1"/>
</g>
<!-- MRNData -->
<g id="node10" class="node">
<title>MRNData</title>
<g id="a_node10"><a xlink:href="../api/DLNIRSP_Pipeline.Data.MRNData.html#DLNIRSP_Pipeline.Data.MRNData" xlink:title="MRNData is an extension of FitsData that loads a single DL&#45;NIRSP mosaic/repeat number from a directory containing" target="_top">
<polygon fill="white" stroke="black" stroke-width="0.5" points="250,-19 187,-19 187,0 250,0 250,-19"/>
<text text-anchor="middle" x="218.5" y="-7" font-family="Vera Sans, DejaVu Sans, Liberation Sans, Arial, Helvetica, sans" font-size="10.00">MRNData</text>
</a>
</g>
</g>
<!-- FitsData&#45;&gt;MRNData -->
<g id="edge6" class="edge">
<title>FitsData&#45;&gt;MRNData</title>
<path fill="none" stroke="black" stroke-width="0.5" d="M88.68,-54.97C108.32,-47.6 136.33,-37.2 161,-28.5 168.3,-25.93 176.15,-23.24 183.61,-20.72"/>
<polygon fill="black" stroke="black" stroke-width="0.5" points="184.52,-22.26 188.7,-19 183.4,-18.94 184.52,-22.26"/>
</g>
<!-- DataSetData -->
<g id="node7" class="node">
<title>DataSetData</title>
<g id="a_node7"><a xlink:href="../api/DLNIRSP_Pipeline.Data.DataSetData.html#DLNIRSP_Pipeline.Data.DataSetData" xlink:title="DataSetData performs 2 functions: First, it separates DL mosaic/repeat numbers (MRN) found among raw data in a" target="_top">
<polygon fill="white" stroke="black" stroke-width="0.5" points="102,-148 23,-148 23,-129 102,-129 102,-148"/>
<text text-anchor="middle" x="62.5" y="-136" font-family="Vera Sans, DejaVu Sans, Liberation Sans, Arial, Helvetica, sans" font-size="10.00">DataSetData</text>
</a>
</g>
</g>
<!-- MosiacRepeatNumber -->
<g id="node11" class="node">
<title>MosiacRepeatNumber</title>
<g id="a_node11"><a xlink:href="../api/DLNIRSP_Pipeline.Data.MosiacRepeatNumber.html#DLNIRSP_Pipeline.Data.MosiacRepeatNumber" xlink:title="This class allows for an easy way to quickly compare SPEC&#45;0122 style headers to determine if they come from the" target="_top">
<polygon fill="white" stroke="black" stroke-width="0.5" points="125,-185 0,-185 0,-166 125,-166 125,-185"/>
<text text-anchor="middle" x="62.5" y="-173" font-family="Vera Sans, DejaVu Sans, Liberation Sans, Arial, Helvetica, sans" font-size="10.00">MosiacRepeatNumber</text>
</a>
</g>
</g>
<!-- SoCCData -->
<g id="node13" class="node">
<title>SoCCData</title>
<g id="a_node13"><a xlink:href="../api/DLNIRSP_Pipeline.Data.SoCCData.html#DLNIRSP_Pipeline.Data.SoCCData" xlink:title="SoCCData performs 2 functions: First, it separates and sorts Calibration Sequence (CS) steps found among raw" target="_top">
<polygon fill="white" stroke="black" stroke-width="0.5" points="95,-222 30,-222 30,-203 95,-203 95,-222"/>
<text text-anchor="middle" x="62.5" y="-210" font-family="Vera Sans, DejaVu Sans, Liberation Sans, Arial, Helvetica, sans" font-size="10.00">SoCCData</text>
</a>
</g>
</g>
</g>
</svg>
