<?xml version="1.0" encoding="UTF-8" standalone="no"?>
<!DOCTYPE svg PUBLIC "-//W3C//DTD SVG 1.1//EN"
 "http://www.w3.org/Graphics/SVG/1.1/DTD/svg11.dtd">
<!-- Generated by graphviz version 2.42.1 (0)
 -->
<!-- Title: inheritance74019d6e9b Pages: 1 -->
<svg width="426pt" height="230pt"
 viewBox="0.00 0.00 426.00 230.00" xmlns="http://www.w3.org/2000/svg" xmlns:xlink="http://www.w3.org/1999/xlink">
<g id="graph0" class="graph" transform="scale(1 1) rotate(0) translate(4 226)">
<title>inheritance74019d6e9b</title>
<polygon fill="white" stroke="transparent" points="-4,4 -4,-226 422,-226 422,4 -4,4"/>
<!-- AlignmentData -->
<g id="node1" class="node">
<title>AlignmentData</title>
<g id="a_node1"><a xlink:href="../api/DLNIRSP_Pipeline.Data.AlignmentData.html#DLNIRSP_Pipeline.Data.AlignmentData" xlink:title="AlignmentData is an extension of `FitData` designed to only hold data from the Alignment InstrumentProgramTask" target="_top">
<polygon fill="none" stroke="black" stroke-width="0.5" points="413.5,-185 323.5,-185 323.5,-166 413.5,-166 413.5,-185"/>
<text text-anchor="middle" x="368.5" y="-173" font-family="Vera Sans, DejaVu Sans, Liberation Sans, Arial, Helvetica, sans" font-size="10.00">AlignmentData</text>
</a>
</g>
</g>
<!-- _TaskData -->
<g id="node2" class="node">
<title>_TaskData</title>
<g id="a_node2"><a xlink:title="_TaskData is a class template that is used to define specific *Data classes that are designed to only hold data">
<polygon fill="none" stroke="black" stroke-width="0.5" points="255.5,-130 188.5,-130 188.5,-111 255.5,-111 255.5,-130"/>
<text text-anchor="middle" x="222" y="-118" font-family="Vera Sans, DejaVu Sans, Liberation Sans, Arial, Helvetica, sans" font-size="10.00">_TaskData</text>
</a>
</g>
</g>
<!-- _TaskData&#45;&gt;AlignmentData -->
<g id="edge1" class="edge">
<title>_TaskData&#45;&gt;AlignmentData</title>
<path fill="none" stroke="black" stroke-width="0.5" d="M247.43,-130.01C266.81,-137.54 294.61,-148.27 319,-157.5 324.71,-159.66 330.81,-161.94 336.68,-164.13"/>
<polygon fill="black" stroke="black" stroke-width="0.5" points="336.26,-165.84 341.55,-165.94 337.47,-162.56 336.26,-165.84"/>
</g>
<!-- DarkData -->
<g id="node6" class="node">
<title>DarkData</title>
<g id="a_node6"><a xlink:href="../api/DLNIRSP_Pipeline.Data.DarkData.html#DLNIRSP_Pipeline.Data.DarkData" xlink:title="DarkData is an extension of `FitData` designed to only hold data from the Dark InstrumentProgramTask" target="_top">
<polygon fill="none" stroke="black" stroke-width="0.5" points="400,-148 337,-148 337,-129 400,-129 400,-148"/>
<text text-anchor="middle" x="368.5" y="-136" font-family="Vera Sans, DejaVu Sans, Liberation Sans, Arial, Helvetica, sans" font-size="10.00">DarkData</text>
</a>
</g>
</g>
<!-- _TaskData&#45;&gt;DarkData -->
<g id="edge3" class="edge">
<title>_TaskData&#45;&gt;DarkData</title>
<path fill="none" stroke="black" stroke-width="0.5" d="M255.79,-124.58C278.39,-127.4 308.43,-131.14 331.67,-134.04"/>
<polygon fill="black" stroke="black" stroke-width="0.5" points="331.64,-135.8 336.82,-134.68 332.07,-132.32 331.64,-135.8"/>
</g>
<!-- GainData -->
<g id="node9" class="node">
<title>GainData</title>
<g id="a_node9"><a xlink:href="../api/DLNIRSP_Pipeline.Data.GainData.html#DLNIRSP_Pipeline.Data.GainData" xlink:title="GainData is an extension of `FitData` designed to only hold data from the Gain InstrumentProgramTask" target="_top">
<polygon fill="none" stroke="black" stroke-width="0.5" points="399.5,-111 337.5,-111 337.5,-92 399.5,-92 399.5,-111"/>
<text text-anchor="middle" x="368.5" y="-99" font-family="Vera Sans, DejaVu Sans, Liberation Sans, Arial, Helvetica, sans" font-size="10.00">GainData</text>
</a>
</g>
</g>
<!-- _TaskData&#45;&gt;GainData -->
<g id="edge5" class="edge">
<title>_TaskData&#45;&gt;GainData</title>
<path fill="none" stroke="black" stroke-width="0.5" d="M255.79,-116.19C278.55,-113.2 308.84,-109.21 332.14,-106.15"/>
<polygon fill="black" stroke="black" stroke-width="0.5" points="332.58,-107.86 337.3,-105.47 332.12,-104.39 332.58,-107.86"/>
</g>
<!-- ObservationData -->
<g id="node12" class="node">
<title>ObservationData</title>
<g id="a_node12"><a xlink:href="../api/DLNIRSP_Pipeline.Data.ObservationData.html#DLNIRSP_Pipeline.Data.ObservationData" xlink:title="ObservationData is an extension of `FitData` designed to only hold data from the Observation InstrumentProgramTask" target="_top">
<polygon fill="none" stroke="black" stroke-width="0.5" points="418,-74 319,-74 319,-55 418,-55 418,-74"/>
<text text-anchor="middle" x="368.5" y="-62" font-family="Vera Sans, DejaVu Sans, Liberation Sans, Arial, Helvetica, sans" font-size="10.00">ObservationData</text>
</a>
</g>
</g>
<!-- _TaskData&#45;&gt;ObservationData -->
<g id="edge7" class="edge">
<title>_TaskData&#45;&gt;ObservationData</title>
<path fill="none" stroke="black" stroke-width="0.5" d="M255.78,-111.92C264.73,-109.24 274.34,-106.04 283,-102.5 299.74,-95.65 302.55,-91.03 319,-83.5 324.65,-80.91 330.77,-78.34 336.69,-75.97"/>
<polygon fill="black" stroke="black" stroke-width="0.5" points="337.59,-77.49 341.6,-74.03 336.31,-74.24 337.59,-77.49"/>
</g>
<!-- CSStep -->
<g id="node3" class="node">
<title>CSStep</title>
<g id="a_node3"><a xlink:href="../api/DLNIRSP_Pipeline.Data.CSStep.html#DLNIRSP_Pipeline.Data.CSStep" xlink:title="This class allows for an easy way to quickly compare SPEC&#45;0122 style headers to determine if they come from the" target="_top">
<polygon fill="none" stroke="black" stroke-width="0.5" points="89.5,-111 35.5,-111 35.5,-92 89.5,-92 89.5,-111"/>
<text text-anchor="middle" x="62.5" y="-99" font-family="Vera Sans, DejaVu Sans, Liberation Sans, Arial, Helvetica, sans" font-size="10.00">CSStep</text>
</a>
</g>
</g>
<!-- CalibrationCurveData -->
<g id="node4" class="node">
<title>CalibrationCurveData</title>
<g id="a_node4"><a xlink:href="../api/DLNIRSP_Pipeline.Data.CalibrationCurveData.html#DLNIRSP_Pipeline.Data.CalibrationCurveData" xlink:title="CalibrationCurveData is an extension of FitsData that loads a single Calibration Curve from a directory" target="_top">
<polygon fill="none" stroke="black" stroke-width="0.5" points="283,-93 161,-93 161,-74 283,-74 283,-93"/>
<text text-anchor="middle" x="222" y="-81" font-family="Vera Sans, DejaVu Sans, Liberation Sans, Arial, Helvetica, sans" font-size="10.00">CalibrationCurveData</text>
</a>
</g>
</g>
<!-- FitsData -->
<g id="node5" class="node">
<title>FitsData</title>
<g id="a_node5"><a xlink:href="../api/DLNIRSP_Pipeline.Data.FitsData.html#DLNIRSP_Pipeline.Data.FitsData" xlink:title="FitsData is a basically a wrapper for astropy.io.fits, with some extra methods and properties to aid the" target="_top">
<polygon fill="none" stroke="black" stroke-width="0.5" points="91,-74 34,-74 34,-55 91,-55 91,-74"/>
<text text-anchor="middle" x="62.5" y="-62" font-family="Vera Sans, DejaVu Sans, Liberation Sans, Arial, Helvetica, sans" font-size="10.00">FitsData</text>
</a>
</g>
</g>
<!-- FitsData&#45;&gt;_TaskData -->
<g id="edge8" class="edge">
<title>FitsData&#45;&gt;_TaskData</title>
<path fill="none" stroke="black" stroke-width="0.5" d="M91.13,-71.85C101.87,-75.01 114.16,-79.01 125,-83.5 141.71,-90.42 144.26,-95.65 161,-102.5 168.03,-105.38 175.7,-108.03 183.12,-110.36"/>
<polygon fill="black" stroke="black" stroke-width="0.5" points="182.92,-112.13 188.22,-111.92 183.95,-108.78 182.92,-112.13"/>
</g>
<!-- FitsData&#45;&gt;CalibrationCurveData -->
<g id="edge2" class="edge">
<title>FitsData&#45;&gt;CalibrationCurveData</title>
<path fill="none" stroke="black" stroke-width="0.5" d="M91.3,-67.85C109.19,-70.01 133.25,-72.91 155.78,-75.63"/>
<polygon fill="black" stroke="black" stroke-width="0.5" points="155.68,-77.38 160.86,-76.24 156.1,-73.91 155.68,-77.38"/>
</g>
<!-- DemodulationData -->
<g id="node8" class="node">
<title>DemodulationData</title>
<g id="a_node8"><a xlink:href="../api/DLNIRSP_Pipeline.Data.DemodulationData.html#DLNIRSP_Pipeline.Data.DemodulationData" xlink:title="DemodulationData is a small modification of the `FitsData` class. It keeps track of demodulation matrices for each" target="_top">
<polygon fill="none" stroke="black" stroke-width="0.5" points="276.5,-56 167.5,-56 167.5,-37 276.5,-37 276.5,-56"/>
<text text-anchor="middle" x="222" y="-44" font-family="Vera Sans, DejaVu Sans, Liberation Sans, Arial, Helvetica, sans" font-size="10.00">DemodulationData</text>
</a>
</g>
</g>
<!-- FitsData&#45;&gt;DemodulationData -->
<g id="edge4" class="edge">
<title>FitsData&#45;&gt;DemodulationData</title>
<path fill="none" stroke="black" stroke-width="0.5" d="M91.3,-61.32C110.92,-59.08 137.94,-55.99 162.24,-53.22"/>
<polygon fill="black" stroke="black" stroke-width="0.5" points="162.61,-54.93 167.38,-52.63 162.21,-51.46 162.61,-54.93"/>
</g>
<!-- MRNData -->
<g id="node10" class="node">
<title>MRNData</title>
<g id="a_node10"><a xlink:href="../api/DLNIRSP_Pipeline.Data.MRNData.html#DLNIRSP_Pipeline.Data.MRNData" xlink:title="MRNData is an extension of FitsData that loads a single DL&#45;NIRSP mosaic/repeat number from a directory containing" target="_top">
<polygon fill="none" stroke="black" stroke-width="0.5" points="253.5,-19 190.5,-19 190.5,0 253.5,0 253.5,-19"/>
<text text-anchor="middle" x="222" y="-7" font-family="Vera Sans, DejaVu Sans, Liberation Sans, Arial, Helvetica, sans" font-size="10.00">MRNData</text>
</a>
</g>
</g>
<!-- FitsData&#45;&gt;MRNData -->
<g id="edge6" class="edge">
<title>FitsData&#45;&gt;MRNData</title>
<path fill="none" stroke="black" stroke-width="0.5" d="M88.64,-54.85C108.26,-47.41 136.25,-36.98 161,-28.5 168.87,-25.8 177.38,-23.03 185.43,-20.46"/>
<polygon fill="black" stroke="black" stroke-width="0.5" points="186.15,-22.07 190.39,-18.89 185.09,-18.73 186.15,-22.07"/>
</g>
<!-- DataSetData -->
<g id="node7" class="node">
<title>DataSetData</title>
<g id="a_node7"><a xlink:href="../api/DLNIRSP_Pipeline.Data.DataSetData.html#DLNIRSP_Pipeline.Data.DataSetData" xlink:title="DataSetData performs 2 functions: First, it separates DL mosaic/repeat numbers (MRN) found among raw data in a" target="_top">
<polygon fill="none" stroke="black" stroke-width="0.5" points="102,-148 23,-148 23,-129 102,-129 102,-148"/>
<text text-anchor="middle" x="62.5" y="-136" font-family="Vera Sans, DejaVu Sans, Liberation Sans, Arial, Helvetica, sans" font-size="10.00">DataSetData</text>
</a>
</g>
</g>
<!-- MosiacRepeatNumber -->
<g id="node11" class="node">
<title>MosiacRepeatNumber</title>
<g id="a_node11"><a xlink:href="../api/DLNIRSP_Pipeline.Data.MosiacRepeatNumber.html#DLNIRSP_Pipeline.Data.MosiacRepeatNumber" xlink:title="This class allows for an easy way to quickly compare SPEC&#45;0122 style headers to determine if they come from the" target="_top">
<polygon fill="none" stroke="black" stroke-width="0.5" points="125,-185 0,-185 0,-166 125,-166 125,-185"/>
<text text-anchor="middle" x="62.5" y="-173" font-family="Vera Sans, DejaVu Sans, Liberation Sans, Arial, Helvetica, sans" font-size="10.00">MosiacRepeatNumber</text>
</a>
</g>
</g>
<!-- SoCCData -->
<g id="node13" class="node">
<title>SoCCData</title>
<g id="a_node13"><a xlink:href="../api/DLNIRSP_Pipeline.Data.SoCCData.html#DLNIRSP_Pipeline.Data.SoCCData" xlink:title="SoCCData performs 2 functions: First, it separates and sorts Calibration Sequence (CS) steps found among raw" target="_top">
<polygon fill="none" stroke="black" stroke-width="0.5" points="95,-222 30,-222 30,-203 95,-203 95,-222"/>
<text text-anchor="middle" x="62.5" y="-210" font-family="Vera Sans, DejaVu Sans, Liberation Sans, Arial, Helvetica, sans" font-size="10.00">SoCCData</text>
</a>
</g>
</g>
</g>
</svg>
